<svg xmlns="http://www.w3.org/2000/svg" viewBox="0 0 960 660" font-family="ui-sans-serif, system-ui, Segoe UI, Roboto, sans-serif">
  <rect width="960" height="660" fill="#0f1320"/>
  <!-- header -->
  <text x="24" y="34" fill="#e6e9f0" font-size="20" font-weight="700">🛡 Sentinel</text>
  <text x="150" y="34" fill="#9aa3b8" font-size="13">Fraud Model Risk Copilot</text>
  <rect x="640" y="18" width="150" height="24" rx="12" fill="none" stroke="#2a3247"/>
  <text x="655" y="34" fill="#9aa3b8" font-size="11">mode: demo · llm: offline</text>
  <rect x="800" y="16" width="136" height="28" rx="8" fill="#4c8dff"/>
  <text x="815" y="34" fill="#fff" font-size="11" font-weight="600">Trigger investigation</text>

  <!-- breach banner -->
  <rect x="24" y="54" width="912" height="34" rx="8" fill="rgba(229,72,77,0.12)" stroke="#e5484d"/>
  <text x="38" y="76" fill="#e6e9f0" font-size="13"><tspan font-weight="700" fill="#e5484d">RED breach</tspan> on v1 · 2026-06-21: score PSI 0.4673 (high-side). Trend: rising.</text>

  <!-- tiles -->
  <g>
    <rect x="24" y="100" width="220" height="72" rx="10" fill="#171c2c" stroke="#2a3247"/>
    <rect x="24" y="100" width="4" height="72" fill="#e5484d"/>
    <text x="40" y="122" fill="#9aa3b8" font-size="10">SCORE PSI (BAND-WISE)</text>
    <text x="40" y="146" fill="#e6e9f0" font-size="22" font-weight="700">0.4673</text>
    <text x="40" y="163" fill="#9aa3b8" font-size="11">investigate · direction: high</text>

    <rect x="254" y="100" width="220" height="72" rx="10" fill="#171c2c" stroke="#2a3247"/>
    <text x="270" y="122" fill="#9aa3b8" font-size="10">FALSE-POSITIVE RATE</text>
    <text x="270" y="146" fill="#e6e9f0" font-size="22" font-weight="700">0.058</text>
    <text x="270" y="163" fill="#9aa3b8" font-size="11">precision 0.41 · recall 0.93</text>

    <rect x="484" y="100" width="220" height="72" rx="10" fill="#171c2c" stroke="#2a3247"/>
    <rect x="484" y="100" width="4" height="72" fill="#e8a33d"/>
    <text x="500" y="122" fill="#9aa3b8" font-size="10">TREND</text>
    <text x="500" y="146" fill="#e6e9f0" font-size="22" font-weight="700">RISING ↑</text>
    <text x="500" y="163" fill="#9aa3b8" font-size="11">slope/day 0.0610</text>

    <rect x="714" y="100" width="222" height="72" rx="10" fill="#171c2c" stroke="#2a3247"/>
    <rect x="714" y="100" width="4" height="72" fill="#e5484d"/>
    <text x="730" y="122" fill="#9aa3b8" font-size="10">WORST FAIRNESS GAP (FPR)</text>
    <text x="730" y="146" fill="#e6e9f0" font-size="22" font-weight="700">+0.452</text>
    <text x="730" y="163" fill="#9aa3b8" font-size="11">slice 65+ vs overall</text>
  </g>

  <!-- band-wise chart card -->
  <rect x="24" y="188" width="540" height="252" rx="12" fill="#171c2c" stroke="#2a3247"/>
  <text x="40" y="212" fill="#e6e9f0" font-size="13" font-weight="600">Band-wise PSI breakdown · score distribution</text>
  <text x="360" y="212" fill="#9aa3b8" font-size="10">■ expected  ■ actual</text>
  <rect x="360" y="204" width="9" height="9" fill="#6b7794"/>
  <rect x="430" y="204" width="9" height="9" fill="#4c8dff"/>
  <!-- baseline -->
  <line x1="48" y1="400" x2="548" y2="400" stroke="#3a4255"/>
  <!-- bar pairs: expected (grey) vs actual (green gain / red loss). Low bins lost mass, high bins gained. -->
  <g>
    <!-- bin 0 (lost) --><rect x="52" y="300" width="18" height="100" fill="#6b7794"/><rect x="72" y="340" width="18" height="60" fill="#e5484d"/>
    <!-- bin 1 --><rect x="102" y="305" width="18" height="95" fill="#6b7794"/><rect x="122" y="345" width="18" height="55" fill="#e5484d"/>
    <!-- bin 2 --><rect x="152" y="310" width="18" height="90" fill="#6b7794"/><rect x="172" y="350" width="18" height="50" fill="#e5484d"/>
    <!-- bin 3 --><rect x="202" y="312" width="18" height="88" fill="#6b7794"/><rect x="222" y="358" width="18" height="42" fill="#e5484d"/>
    <!-- bin 4 (flat) --><rect x="252" y="330" width="18" height="70" fill="#6b7794"/><rect x="272" y="332" width="18" height="68" fill="#6b7794"/>
    <!-- bin 5 --><rect x="302" y="330" width="18" height="70" fill="#6b7794"/><rect x="322" y="322" width="18" height="78" fill="#2fbf71"/>
    <!-- bin 6 (gain) --><rect x="352" y="325" width="18" height="75" fill="#6b7794"/><rect x="372" y="290" width="18" height="110" fill="#2fbf71"/>
    <!-- bin 7 --><rect x="402" y="322" width="18" height="78" fill="#6b7794"/><rect x="422" y="278" width="18" height="122" fill="#2fbf71"/>
    <!-- bin 8 --><rect x="452" y="320" width="18" height="80" fill="#6b7794"/><rect x="472" y="268" width="18" height="132" fill="#2fbf71"/>
    <!-- bin 9 (biggest gain) --><rect x="502" y="318" width="18" height="82" fill="#6b7794"/><rect x="522" y="258" width="18" height="142" fill="#2fbf71"/>
  </g>
  <text x="60" y="418" fill="#9aa3b8" font-size="9">[-inf,0.1)</text>
  <text x="300" y="418" fill="#9aa3b8" font-size="9">← score bins low → high →</text>
  <text x="505" y="418" fill="#9aa3b8" font-size="9">[0.9,inf)</text>
  <text x="40" y="434" fill="#9aa3b8" font-size="10">Green = distribution gained mass here (high-side over-flagging shift).</text>

  <!-- queue card -->
  <rect x="24" y="452" width="540" height="120" rx="12" fill="#171c2c" stroke="#2a3247"/>
  <text x="40" y="476" fill="#e6e9f0" font-size="13" font-weight="600">Investigation queue</text>
  <circle cx="46" cy="500" r="5" fill="#e5484d"/>
  <text x="60" y="504" fill="#c9d3ec" font-size="12" font-family="ui-monospace, monospace">346626cd</text>
  <text x="140" y="504" fill="#9aa3b8" font-size="11">RED · high · 2026-06-21</text>
  <rect x="440" y="492" width="112" height="20" rx="10" fill="none" stroke="#2fbf71"/>
  <text x="452" y="506" fill="#2fbf71" font-size="10">approved</text>

  <!-- copilot memo panel -->
  <rect x="580" y="188" width="356" height="384" rx="12" fill="#171c2c" stroke="#2a3247"/>
  <text x="596" y="212" fill="#e6e9f0" font-size="13" font-weight="600">Copilot memo</text>
  <rect x="838" y="198" width="82" height="20" rx="10" fill="none" stroke="#2fbf71"/>
  <text x="850" y="212" fill="#2fbf71" font-size="10">approved</text>

  <text x="596" y="240" fill="#4c8dff" font-size="12" font-weight="700">(a) Finding</text>
  <text x="596" y="256" fill="#e6e9f0" font-size="11">Score distribution shifted to the high</text>
  <text x="596" y="270" fill="#e6e9f0" font-size="11">(over-flagging) end. PSI 0.4673 · RED.</text>

  <text x="596" y="294" fill="#4c8dff" font-size="12" font-weight="700">(b) Business implication</text>
  <text x="596" y="310" fill="#e6e9f0" font-size="11">Over-flagging → false declines →</text>
  <text x="596" y="324" fill="#e6e9f0" font-size="11">route to Product / Sales / CX.</text>

  <text x="596" y="348" fill="#4c8dff" font-size="12" font-weight="700">(c) Policy basis</text>
  <rect x="596" y="356" width="96" height="18" rx="6" fill="#1e2436" stroke="#2a3247"/>
  <text x="604" y="369" fill="#c9d3ec" font-size="10" font-family="ui-monospace, monospace">SR_26-2:III.B</text>
  <rect x="700" y="356" width="74" height="18" rx="6" fill="#1e2436" stroke="#2a3247"/>
  <text x="708" y="369" fill="#c9d3ec" font-size="10" font-family="ui-monospace, monospace">ModelVal:3</text>
  <rect x="782" y="356" width="96" height="18" rx="6" fill="#1e2436" stroke="#2a3247"/>
  <text x="790" y="369" fill="#c9d3ec" font-size="10" font-family="ui-monospace, monospace">SR_26-2:III.A</text>

  <text x="596" y="398" fill="#4c8dff" font-size="12" font-weight="700">(d) Recommended action</text>
  <text x="596" y="414" fill="#e6e9f0" font-size="11">Review the 0.85 threshold; convene</text>
  <text x="596" y="428" fill="#e6e9f0" font-size="11">model risk with the routed team.</text>

  <!-- gate -->
  <line x1="596" y1="446" x2="920" y2="446" stroke="#2a3247"/>
  <rect x="596" y="458" width="150" height="30" rx="8" fill="#2fbf71"/>
  <text x="636" y="478" fill="#06281a" font-size="12" font-weight="700">Approve</text>
  <rect x="756" y="458" width="150" height="30" rx="8" fill="#e5484d"/>
  <text x="800" y="478" fill="#2a0708" font-size="12" font-weight="700">Reject</text>
  <text x="596" y="512" fill="#9aa3b8" font-size="10">Nothing ships without approval. Approve/Reject resumes the</text>
  <text x="596" y="526" fill="#9aa3b8" font-size="10">paused agent graph and appends to the immutable audit log.</text>
  <text x="596" y="552" fill="#2fbf71" font-size="11">Decision recorded: approved. Graph resumed.</text>

  <!-- audit trail -->
  <rect x="24" y="584" width="912" height="60" rx="12" fill="#171c2c" stroke="#2a3247"/>
  <text x="40" y="606" fill="#e6e9f0" font-size="12" font-weight="600">Audit trail (append-only)</text>
  <rect x="40" y="614" width="896" height="18" rx="4" fill="rgba(76,141,255,0.10)"/>
  <text x="48" y="627" fill="#9aa3b8" font-size="10" font-family="ui-monospace, monospace">2026-06-21 08:23:19</text>
  <text x="200" y="627" fill="#c9d3ec" font-size="10">human:mrm@bank.example</text>
  <text x="400" y="627" fill="#e6e9f0" font-size="10">approved</text>
  <text x="520" y="627" fill="#c9d3ec" font-size="10" font-family="ui-monospace, monospace">SR_26-2:VII</text>

  <!-- label: schematic -->
  <text x="936" y="656" text-anchor="end" fill="#6b7794" font-size="9">schematic — see the live demo / run locally for the real UI</text>
</svg>
